:FULLY-SPECIFIED
:FORCE-ALL-JOINTS-BE-3DOF
:DEGREES
2344
root -0.653219 14.0976 -19.5031 -175.465 40.1801 174.518
lfemur -10.4595 6.54036 -8.37221
ltibia 53.4438 -0 0
lfoot -15.3411 30.9318 -0.4532
ltoes -25.6187 0 0
rfemur -58.1069 -11.4167 14.8708
rtibia 77.2316 -0 0
rfoot -15.0254 -3.60349 1.29977
rtoes -6.96495 0 0
lowerback 13.4122 3.49258 -6.47389
upperback -2.02476 3.47509 -0.312365
thorax -9.92755 1.97184 2.46813
lowerneck -3.51445 -5.53428 -6.07442
upperneck 6.26424 -7.31514 3.40881
head 3.47643 -3.72535 1.74297
lclavicle -2.16821e-14 -1.18107e-14 1.30657e-30
lhumerus -38.4438 -17.0972 90.5141
lradius 105.922 -0 0
lwrist 53.6072 0 0
lhand -31.5749 59.5703 0.0209174
lfingers 7.12502 -0 0
lthumb -4.83376 89.3276 0.0384748
rclavicle -2.16821e-14 -1.18107e-14 1.30657e-30
rhumerus 25.5983 23.4937 -57.6334
rradius 60.1698 -0 0
rwrist -0.649712 0 0
rhand -10.2105 -31.9371 1.08296
rfingers 7.12502 -0 0
rthumb 15.7571 -61.0141 1.12343
2345
root -0.647853 14.1128 -19.5792 -175.567 42.0683 174.577
lfemur -11.2565 6.69593 -8.28068
ltibia 54.1335 -0 0
lfoot -15.1427 30.7711 -0.45682
ltoes -24.9809 0 0
rfemur -57.6637 -11.1014 14.9955
rtibia 77.1882 -0 0
rfoot -15.211 -4.1004 1.31025
rtoes -7.33468 0 0
lowerback 13.4968 3.50771 -6.28572
upperback -2.0178 3.52566 -0.281281
thorax -9.96075 1.98731 2.3807
lowerneck -3.61934 -5.35751 -5.9177
upperneck 6.29879 -7.06732 3.23706
head 3.4888 -3.60361 1.67531
lclavicle -2.0781e-14 -1.19125e-14 1.31697e-30
lhumerus -37.5644 -16.9072 90.1038
lradius 106.04 -0 0
lwrist 53.1737 0 0
lhand -31.788 59.5634 0.0210843
lfingers 7.12502 -0 0
lthumb -5.03947 89.3144 0.0387818
rclavicle -2.0781e-14 -1.19125e-14 1.31697e-30
rhumerus 24.8182 24.3791 -57.9239
rradius 61.3834 -0 0
rwrist -1.56529 0 0
rhand -9.95031 -31.6431 1.09165
rfingers 7.12502 -0 0
rthumb 16.0076 -60.6972 1.13244
2346
root -0.642487 14.128 -19.6553 -175.669 43.9564 174.634
lfemur -12.0535 6.85274 -8.19132
ltibia 54.8232 -0 0
lfoot -14.9442 30.6103 -0.459883
ltoes -24.3431 0 0
rfemur -57.2203 -10.7871 15.1225
rtibia 77.1449 -0 0
rfoot -15.3968 -4.59734 1.31911
rtoes -7.7044 0 0
lowerback 13.5815 3.52255 -6.09752
upperback -2.01082 3.57622 -0.25019
thorax -9.99397 2.00273 2.29325
lowerneck -3.72372 -5.18045 -5.76136
upperneck 6.33258 -6.8194 3.06556
head 3.50103 -3.48185 1.60769
lclavicle -1.988e-14 -1.20143e-14 1.32578e-30
lhumerus -36.6874 -16.7113 89.6971
lradius 106.159 -0 0
lwrist 52.7401 0 0
lhand -32.0012 59.5565 0.0212256
lfingers 7.12502 -0 0
lthumb -5.24518 89.3013 0.0390416
rclavicle -1.988e-14 -1.20143e-14 1.32578e-30
rhumerus 24.0276 25.2607 -58.2298
rradius 62.597 -0 0
rwrist -2.48087 0 0
rhand -9.69009 -31.3491 1.09899
rfingers 7.12502 -0 0
rthumb 16.2582 -60.3803 1.14006
2347
root -0.637122 14.1432 -19.7314 -175.771 45.8447 174.688
lfemur -12.8505 7.01078 -8.10413
ltibia 55.513 -0 0
lfoot -14.7457 30.4495 -0.462389
ltoes -23.7053 0 0
rfemur -56.7767 -10.4738 15.2519
rtibia 77.1015 -0 0
rfoot -15.5826 -5.09431 1.32637
rtoes -8.07412 0 0
lowerback 13.6663 3.53712 -5.9093
upperback -2.0038 3.62678 -0.21909
thorax -10.0272 2.0181 2.2058
lowerneck -3.82758 -5.00311 -5.60539
upperneck 6.36561 -6.57138 2.89429
head 3.51312 -3.36008 1.54011
lclavicle -1.89789e-14 -1.21162e-14 1.33299e-30
lhumerus -35.8127 -16.5094 89.294
lradius 106.277 -0 0
lwrist 52.3065 0 0
lhand -32.2143 59.5496 0.0213412
lfingers 7.12502 -0 0
lthumb -5.45089 89.2881 0.0392541
rclavicle -1.89789e-14 -1.21162e-14 1.33299e-30
rhumerus 23.2259 26.1384 -58.5514
rradius 63.8105 -0 0
rwrist -3.39644 0 0
rhand -9.42983 -31.055 1.105
rfingers 7.12502 -0 0
rthumb 16.5088 -60.0634 1.1463
2348
root -0.631756 14.1584 -19.8075 -175.875 47.733 174.739
lfemur -13.6475 7.17 -8.01914
ltibia 56.2027 -0 0
lfoot -14.5472 30.2888 -0.464339
ltoes -23.0676 0 0
rfemur -56.3327 -10.1615 15.3836
rtibia 77.0582 -0 0
rfoot -15.7685 -5.5913 1.33201
rtoes -8.44385 0 0
lowerback 13.7511 3.55141 -5.72105
upperback -1.99676 3.67734 -0.187983
thorax -10.0605 2.03342 2.11834
lowerneck -3.93093 -4.82549 -5.44978
upperneck 6.39787 -6.32326 2.72325
head 3.52506 -3.2383 1.47256
lclavicle -1.80779e-14 -1.2218e-14 1.33859e-30
lhumerus -34.9404 -16.3017 88.8945
lradius 106.396 -0 0
lwrist 51.873 0 0
lhand -32.4274 59.5427 0.0214311
lfingers 7.12502 -0 0
lthumb -5.6566 89.275 0.0394195
rclavicle -1.80779e-14 -1.2218e-14 1.33859e-30
rhumerus 22.4125 27.0119 -58.8893
rradius 65.0241 -0 0
rwrist -4.31202 0 0
rhand -9.16954 -30.7609 1.10968
rfingers 7.12502 -0 0
rthumb 16.7595 -59.7464 1.15116
2349
root -0.62639 14.1736 -19.8836 -175.98 49.6214 174.787
lfemur -14.4446 7.33039 -7.93636
ltibia 56.8925 -0 0
lfoot -14.3487 30.128 -0.465731
ltoes -22.4298 0 0
rfemur -55.8885 -9.85018 15.5176
rtibia 77.0148 -0 0
rfoot -15.9544 -6.08831 1.33604
rtoes -8.81357 0 0
lowerback 13.8359 3.56542 -5.53278
upperback -1.98969 3.72789 -0.156868
thorax -10.0938 2.04869 2.03086
lowerneck -4.03376 -4.64759 -5.29453
upperneck 6.42937 -6.07505 2.55243
head 3.53685 -3.1165 1.40504
lclavicle -1.71768e-14 -1.23198e-14 1.34259e-30
lhumerus -34.0706 -16.0881 88.4989
lradius 106.515 -0 0
lwrist 51.4394 0 0
lhand -32.6406 59.5358 0.0214953
lfingers 7.12502 -0 0
lthumb -5.86231 89.2618 0.0395376
rclavicle -1.71768e-14 -1.23198e-14 1.34259e-30
rhumerus 21.5868 27.881 -59.2438
rradius 66.2377 -0 0
rwrist -5.2276 0 0
rhand -8.90923 -30.4668 1.11302
rfingers 7.12502 -0 0
rthumb 17.0101 -59.4295 1.15462
2350
root -0.621024 14.1888 -19.9597 -176.086 51.5099 174.831
lfemur -15.2418 7.4919 -7.85581
ltibia 57.5822 -0 0
lfoot -14.1502 29.9672 -0.466567
ltoes -21.792 0 0
rfemur -55.444 -9.53989 15.6539
rtibia 76.9715 -0 0
rfoot -16.1403 -6.58533 1.33846
rtoes -9.1833 0 0
lowerback 13.9208 3.57915 -5.34449
upperback -1.98259 3.77844 -0.125745
thorax -10.1271 2.06391 1.94338
lowerneck -4.13609 -4.46942 -5.13964
upperneck 6.46012 -5.82675 2.38182
head 3.5485 -2.99469 1.33755
lclavicle -1.62758e-14 -1.24216e-14 1.345e-30
lhumerus -33.2033 -15.8689 88.107
lradius 106.633 -0 0
lwrist 51.0058 0 0
lhand -32.8537 59.5289 0.0215338
lfingers 7.12502 -0 0
lthumb -6.06802 89.2487 0.0396084
rclavicle -1.62758e-14 -1.24216e-14 1.345e-30
rhumerus 20.7483 28.7455 -59.6155
rradius 67.4513 -0 0
rwrist -6.14317 0 0
rhand -8.64891 -30.1726 1.11502
rfingers 7.12502 -0 0
rthumb 17.2608 -59.1125 1.1567
2351
root -0.615658 14.2041 -20.0358 -176.195 53.3984 174.871
lfemur -16.039 7.6545 -7.7775
ltibia 58.2719 -0 0
lfoot -13.9517 29.8064 -0.466845
ltoes -21.1542 0 0
rfemur -54.9991 -9.23067 15.7926
rtibia 76.9281 -0 0
rfoot -16.3263 -7.08235 1.33927
rtoes -9.55302 0 0
lowerback 14.0058 3.5926 -5.15618
upperback -1.97547 3.82898 -0.0946133
thorax -10.1604 2.07908 1.85589
lowerneck -4.23791 -4.29097 -4.98511
upperneck 6.49011 -5.57836 2.21142
head 3.56001 -2.87287 1.2701
lclavicle -1.53748e-14 -1.25234e-14 1.3458e-30
lhumerus -32.3385 -15.6439 87.7191
lradius 106.752 -0 0
lwrist 50.5723 0 0
lhand -33.0669 59.522 0.0215466
lfingers 7.12502 -0 0
lthumb -6.27372 89.2355 0.039632
rclavicle -1.53748e-14 -1.25234e-14 1.3458e-30
rhumerus 19.8962 29.605 -60.0049
rradius 68.6649 -0 0
rwrist -7.05875 0 0
rhand -8.38858 -29.8785 1.11569
rfingers 7.12502 -0 0
rthumb 17.5115 -58.7955 1.1574
2352
root -0.610293 14.2193 -20.1119 -176.307 55.2869 174.907
lfemur -16.8363 7.81817 -7.70145
ltibia 58.9617 -0 0
lfoot -13.7532 29.6457 -0.466567
ltoes -20.5164 0 0
rfemur -54.5538 -8.92251 15.9335
rtibia 76.8847 -0 0
rfoot -16.5122 -7.57937 1.33846
rtoes -9.92274 0 0
lowerback 14.0907 3.60578 -4.96784
upperback -1.96831 3.87952 -0.0634738
thorax -10.1938 2.0942 1.76838
lowerneck -4.33922 -4.11224 -4.83093
upperneck 6.51934 -5.32987 2.04122
head 3.57137 -2.75103 1.20268
lclavicle -1.44737e-14 -1.26252e-14 1.345e-30
lhumerus -31.4763 -15.4134 87.3352
lradius 106.871 -0 0
lwrist 50.1387 0 0
lhand -33.28 59.5151 0.0215338
lfingers 7.12502 -0 0
lthumb -6.47943 89.2223 0.0396084
rclavicle -1.44737e-14 -1.26252e-14 1.345e-30
rhumerus 19.03 30.4594 -60.4124
rradius 69.8785 -0 0
rwrist -7.97433 0 0
rhand -8.12825 -29.5844 1.11502
rfingers 7.12502 -0 0
rthumb 17.7622 -58.4785 1.1567
2353
root -0.604927 14.2345 -20.188 -176.422 57.1755 174.937
lfemur -17.6337 7.98288 -7.62768
ltibia 59.6514 -0 0
lfoot -13.5548 29.4849 -0.465731
ltoes -19.8786 0 0
rfemur -54.1081 -8.61544 16.0768
rtibia 76.8414 -0 0
rfoot -16.6982 -8.07639 1.33604
rtoes -10.2925 0 0
lowerback 14.1758 3.61868 -4.77948
upperback -1.96113 3.93006 -0.032326
thorax -10.2272 2.10926 1.68087
lowerneck -4.44003 -3.93325 -4.6771
upperneck 6.54782 -5.08131 1.87122
head 3.58258 -2.62918 1.13529
lclavicle -1.35727e-14 -1.27271e-14 1.34259e-30
lhumerus -30.6166 -15.1773 86.9553
lradius 106.989 -0 0
lwrist 49.7051 0 0
lhand -33.4931 59.5082 0.0214953
lfingers 7.12502 -0 0
lthumb -6.68514 89.2092 0.0395376
rclavicle -1.35727e-14 -1.27271e-14 1.34259e-30
rhumerus 18.149 31.3082 -60.8386
rradius 71.0921 -0 0
rwrist -8.8899 0 0
rhand -7.86793 -29.2902 1.11302
rfingers 7.12502 -0 0
rthumb 18.0129 -58.1615 1.15462
